Coordinates
version=1
nRows=10
nColumns=63
inDegrees=yes

Units are S.I. units (second, meters, Newtons, ...)
If the header above contains a line with 'inDegrees', this indicates whether rotational values are in degrees (yes) or radians (no).

endheader
time	pelvis_tilt	pelvis_list	pelvis_rotation	pelvis_tx	pelvis_ty	pelvis_tz	hip_flexion_r	hip_adduction_r	hip_rotation_r	knee_angle_r	knee_angle_r_beta	ankle_angle_r	subtalar_angle_r	mtp_angle_r	hip_flexion_l	hip_adduction_l	hip_rotation_l	knee_angle_l	knee_angle_l_beta	ankle_angle_l	subtalar_angle_l	mtp_angle_l	L5_S1_Flex_Ext	L5_S1_Lat_Bending	L5_S1_axial_rotation	L4_L5_Flex_Ext	L4_L5_Lat_Bending	L4_L5_axial_rotation	L3_L4_Flex_Ext	L3_L4_Lat_Bending	L3_L4_axial_rotation	L2_L3_Flex_Ext	L2_L3_Lat_Bending	L2_L3_axial_rotation	L1_L2_Flex_Ext	L1_L2_Lat_Bending	L1_L2_axial_rotation	L1_T12_Flex_Ext	L1_T12_Lat_Bending	L1_T12_axial_rotation	Abs_r3	Abs_r2	Abs_r1	Abs_t1	Abs_t2	neck_flexion	neck_bending	neck_rotation	arm_flex_r	arm_add_r	arm_rot_r	elbow_flex_r	pro_sup_r	wrist_flex_r	wrist_dev_r	arm_flex_l	arm_add_l	arm_rot_l	elbow_flex_l	pro_sup_l	wrist_flex_l	wrist_dev_l
      5.49152542	      0.85254926	     -6.19996743	     84.90992196	      0.16612216	      0.96567409	      0.52574110	      6.12550813	      2.18383099	     -0.06370321	     17.46450420	      0.30481310	     27.27993556	      0.76812755	      0.00000000	      1.66700662	     -1.85586476	     -9.78192669	      8.63654196	      0.15073609	     25.98478805	      8.85977336	      0.00000000	     -0.02963819	      0.04886278	      0.50276252	     -0.05504109	      0.06498750	      0.53418518	     -0.04869259	      0.11880496	      0.53418518	     -0.03387349	      0.11880496	      0.43991720	     -0.02752203	      0.09964098	      0.40849455	     -0.01693526	      0.07568845	      0.37707189	     -0.21170266	      0.55274555	      2.79621429	      0.00000000	      0.00000000	     12.96591156	     -0.09300463	      5.84904000	    -11.85551995	    -12.41549320	     -2.13380871	     40.50645252	     86.20641711	     -2.63942906	     11.03117574	    -10.36692040	    -10.83553771	      2.38346369	     33.03037332	     87.04758394	     -9.83270436	     -1.50538428
      5.50847458	      0.85902544	     -6.15971672	     84.87609227	      0.16633488	      0.96579940	      0.52576093	      6.07571348	      2.18147571	     -0.15632806	     17.44888119	      0.30454043	     27.44406840	      1.07296533	      0.00000000	      1.60228411	     -1.87512209	     -9.82867405	      8.63629785	      0.15073183	     25.79918830	      8.83773598	      0.00000000	     -0.03483308	      0.04978467	      0.49360733	     -0.06468852	      0.06621361	      0.52445778	     -0.05722727	      0.12104644	      0.52445778	     -0.03981073	      0.12104644	      0.43190641	     -0.03234600	      0.10152090	      0.40105595	     -0.01990362	      0.07711645	      0.37020549	     -0.24880922	      0.56317413	      2.74529586	      0.00000000	      0.00000000	     13.01042851	      0.22313622	      6.14445749	    -11.76490163	    -12.47855471	     -1.73662059	     40.49907321	     85.86436604	     -2.88093571	     10.94294044	    -10.18155261	    -11.16138705	      3.39561660	     33.05934624	     87.41362824	    -10.84612492	     -2.94128901
      5.52542373	      0.85401799	     -6.15889491	     84.84223238	      0.16654063	      0.96572555	      0.52568730	      6.08230725	      2.18973728	     -0.12672053	     17.47479161	      0.30499265	     27.67368633	      1.22610364	      0.00000000	      1.58432045	     -1.90222628	    -10.13302214	      8.68649376	      0.15160792	     25.70182624	      9.06825027	      0.00000000	     -0.03449790	      0.04752312	      0.51307667	     -0.06406606	      0.06320574	      0.54514396	     -0.05667661	      0.11554770	      0.54514396	     -0.03942766	      0.11554770	      0.44894208	     -0.03203475	      0.09690914	      0.41687479	     -0.01971210	      0.07361331	      0.38480750	     -0.24641508	      0.53759100	      2.85357850	      0.00000000	      0.00000000	     13.09492079	      0.46989021	      6.12344831	    -11.85951609	    -12.40067387	     -2.01855192	     40.53677973	     86.04095840	     -2.45158128	     10.66892117	    -10.07788091	    -11.60203347	      4.59452645	     33.51870575	     87.58629296	    -11.91113910	     -3.85318768
      5.54237288	      0.90093506	     -6.12502080	     85.02908598	      0.16637106	      0.96567718	      0.52558122	      6.00113581	      2.19049181	     -0.49911855	     17.43139906	      0.30423531	     27.91025045	      1.67042553	      0.00000000	      1.56693379	     -1.95480341	     -9.92965666	      8.77916632	      0.15322536	     25.55408825	      8.84171290	      0.00000000	     -0.03854567	      0.04968346	      0.50298522	     -0.07158317	      0.06607901	      0.53442180	     -0.06332669	      0.12080037	      0.53442180	     -0.04405385	      0.12080037	      0.44011207	     -0.03579351	      0.10131452	      0.40867549	     -0.02202500	      0.07695969	      0.37723892	     -0.27532789	      0.56202928	      2.79745291	      0.00000000	      0.00000000	     13.10182601	      0.60797727	      5.97330633	    -11.96251139	    -12.46549361	     -1.68373618	     40.52904844	     85.47833628	     -2.68272771	     10.04542460	    -10.12099814	    -11.86322201	      4.97242101	     34.37098646	     87.87709021	    -12.60942710	     -3.90975267
      5.55932203	      0.90150079	     -6.14185495	     85.23878813	      0.16628842	      0.96533053	      0.52545967	      6.02497545	      2.18603201	     -0.63731704	     17.49181225	      0.30528972	     28.15725594	      1.73304887	      0.00000000	      1.58228032	     -1.96074005	     -9.56214254	      8.82561467	      0.15403603	     25.41165869	      8.43520095	      0.00000000	     -0.03390989	      0.04391273	      0.47625985	     -0.06297405	      0.05840393	      0.50602609	     -0.05571055	      0.10676942	      0.50602609	     -0.03875561	      0.10676942	      0.41672737	     -0.03148872	      0.08954685	      0.38696113	     -0.01937611	      0.06802082	      0.35719489	     -0.24221493	      0.49674962	      2.64881442	      0.00000000	      0.00000000	     13.13810028	      0.65687694	      5.72553202	    -12.12160318	    -12.29289281	     -2.10897670	     40.58460520	     85.54377047	     -2.11053216	      9.50449707	    -10.47734353	    -11.87760622	      4.30645637	     35.62569127	     88.04602115	    -13.45181350	     -3.50034414
      5.57627119	      0.91306763	     -6.12271091	     85.51793790	      0.16600060	      0.96502620	      0.52551719	      6.01249250	      2.18701683	     -0.81859031	     17.53743848	      0.30608604	     28.31388125	      1.66681344	      0.00000000	      1.59273581	     -1.95147941	     -8.94535296	      8.90461014	      0.15541477	     25.31751634	      7.76328388	      0.00000000	     -0.03747236	      0.03978915	      0.43136237	     -0.06958991	      0.05291957	      0.45832252	     -0.06156333	      0.09674335	      0.45832252	     -0.04282716	      0.09674335	      0.37744208	     -0.03479683	      0.08113804	      0.35048193	     -0.02141170	      0.06163340	      0.32352178	     -0.26766129	      0.45010286	      2.39910811	      0.00000000	      0.00000000	     13.12771287	      0.58967885	      5.34863096	    -12.19385019	    -12.16031502	     -2.39455522	     40.61780265	     85.60944578	     -1.67014514	      9.20382029	    -10.86282089	    -11.72776495	      2.94367513	     36.93845758	     88.13328484	    -13.21540133	     -2.38177940
      5.59322034	      0.95417355	     -6.13566636	     85.77650268	      0.16562639	      0.96465361	      0.52575450	      6.05444741	      2.20493347	     -1.04438261	     17.60238881	      0.30721964	     28.39599730	      1.64038833	      0.00000000	      1.64835748	     -1.96117896	     -8.23730703	      8.98927438	      0.15689244	     25.30794977	      6.96041321	      0.00000000	     -0.03815260	      0.04131574	      0.39085575	     -0.07085320	      0.05494993	      0.41528423	     -0.06268091	      0.10045509	      0.41528423	     -0.04360461	      0.10045509	      0.34199878	     -0.03542851	      0.08425106	      0.31757029	     -0.02180040	      0.06399808	      0.29314181	     -0.27252023	      0.46737191	      2.17382240	      0.00000000	      0.00000000	     13.11752702	      0.35793484	      4.85072657	    -12.27864922	    -12.08138795	     -2.55270779	     40.66887228	     85.47476597	     -1.51318703	      8.85364601	    -11.20594634	    -11.46388693	      1.47738219	     38.14361925	     88.21211430	    -12.85172071	     -1.13631998
      5.61016949	      0.99288895	     -6.18653669	     85.93726785	      0.16532687	      0.96430589	      0.52619193	      6.15307863	      2.24230837	     -1.11508033	     17.66383668	      0.30829211	     28.37869533	      1.43704350	      0.00000000	      1.76705600	     -2.04397341	     -8.45666393	      9.12905164	      0.15933201	     25.51455666	      7.35989696	      0.00000000	     -0.03575762	      0.04418269	      0.35840096	     -0.06640548	      0.05876298	      0.38080102	     -0.05874620	      0.10742580	      0.38080102	     -0.04086739	      0.10742580	      0.31360084	     -0.03320453	      0.09009735	      0.29120078	     -0.02043190	      0.06843899	      0.26880072	     -0.25541311	      0.49980346	      1.99331860	      0.00000000	      0.00000000	     13.14348595	      0.07543348	      4.33523645	    -12.29423646	    -12.05785240	     -2.50270954	     40.64397177	     85.20057999	     -1.50666154	      8.62630775	    -11.43091401	    -11.24379200	      0.46476352	     39.03804825	     88.23517381	    -12.87108548	     -0.20942339
      5.62711864	      1.09461513	     -6.25406189	     86.00845475	      0.16480130	      0.96409852	      0.52679253	      6.26194616	      2.30454957	     -1.30550663	     17.68584650	      0.30867625	     28.25833221	      1.48693513	      0.00000000	      1.89519042	     -2.14159504	     -8.39497413	      9.20994894	      0.16074393	     25.63910206	      7.33156810	      0.00000000	     -0.03420095	      0.06235955	      0.34231376	     -0.06351459	      0.08293820	      0.36370837	     -0.05618874	      0.15162101	      0.36370837	     -0.03908827	      0.15162101	      0.29952454	     -0.03175900	      0.12716359	      0.27812993	     -0.01954242	      0.09659494	      0.25673532	     -0.24429398	      0.70542370	      1.90384644	      0.00000000	      0.00000000	     13.20834530	     -0.25250479	      4.03735812	    -12.29035103	    -12.23432586	     -2.08068334	     40.63957428	     84.41368038	     -1.92964903	      8.52527048	    -11.36349160	    -11.05064846	      0.16017811	     39.26184659	     88.21867387	    -13.09468120	      0.14408967
      5.64406780	      1.14319879	     -6.35170305	     86.03450859	      0.16443297	      0.96393286	      0.52752883	      6.42347088	      2.35658641	     -1.24471106	     17.71552325	      0.30919421	     28.03457692	      1.17471830	      0.00000000	      2.06655819	     -2.22452054	     -8.75613082	      9.27305002	      0.16184525	     25.78306799	      7.88118571	      0.00000000	     -0.03020286	      0.07497240	      0.32273741	     -0.05608973	      0.09971329	      0.34290850	     -0.04962028	      0.18228789	      0.34290850	     -0.03451885	      0.18228789	      0.28239523	     -0.02804638	      0.15288372	      0.26222414	     -0.01725791	      0.11613225	      0.24205306	     -0.21573602	      0.84810277	      1.79496865	      0.00000000	      0.00000000	     13.29451679	     -0.43554299	      4.12498505	    -12.21858510	    -12.24415182	     -2.22153313	     40.65656115	     84.80029341	     -1.86647707	      8.99447725	    -11.27371847	    -10.84266137	     -0.36642981	     39.24513952	     88.14323347	    -12.77124018	      0.21171076
